<svg width="706" height="706" viewBox="0 0 706 706" fill="none" xmlns="http://www.w3.org/2000/svg">
<rect width="706" height="706" rx="100" fill="#121212"/>
<path d="M603 353C603 491.071 491.071 603 353 603C214.929 603 103 491.071 103 353C103 214.929 214.929 103 353 103C491.071 103 603 214.929 603 353Z" fill="#11E760"/>
<path d="M442.095 539.894C444.225 534.943 448.028 534.194 452.296 531.815C480.864 515.874 502.194 491.492 519.857 464.326C527.556 452.47 533.812 439.729 538.608 426.093C539.807 422.684 540.93 420.396 541.977 419.228C546.54 414.088 554.581 414.526 559.202 419.663C562.8 423.671 562.151 428.407 560.385 433.561C556.878 443.773 552.311 454.01 546.671 464.27C526.766 500.488 496.133 535.729 458.608 554.487C448.52 559.527 437.504 550.552 442.095 539.894Z" fill="#191414"/>
<path d="M424.621 500.585C462.809 482.113 491.378 446.388 504.82 406.467C508.516 395.506 526.392 400.941 522.876 412.771C519.78 423.166 515.188 433.79 509.095 444.631C491.63 475.677 466.057 501.302 434.063 517.286C420.367 524.132 411.986 506.706 424.625 500.587L424.621 500.585Z" fill="#191414"/>
<path d="M403.48 472.175C408.441 469.618 413.644 467.008 418.105 464.015C442.089 447.967 458.387 424.959 469.634 399.048C471.217 395.399 473.601 387.852 476.572 385.667C481.619 381.972 488.63 385.689 488.673 391.857C488.685 394.284 486.97 397.373 486.306 399.086C472.303 435.334 447.986 467.22 412.728 484.683C410.242 485.91 408.284 486.543 406.85 486.583C398.735 486.801 396.117 475.978 403.486 472.174L403.48 472.175Z" fill="#191414"/>
<path d="M399 353C399 378.405 378.405 399 353 399C327.595 399 307 378.405 307 353C307 327.595 327.595 307 353 307C378.405 307 399 327.595 399 353Z" fill="#191414"/>
<path d="M284.927 162.986C282.209 167.641 278.344 167.921 273.818 169.762C243.519 182.102 219.377 203.703 198.536 228.514C189.448 239.344 181.687 251.227 175.265 264.177C173.66 267.415 172.266 269.549 171.085 270.58C165.929 275.127 158.001 273.711 154.04 268.05C150.958 263.633 152.179 259.012 154.56 254.111C159.286 244.402 165.066 234.799 171.915 225.302C196.084 191.78 230.784 160.535 270.316 146.49C280.942 142.717 290.783 152.967 284.927 162.986Z" fill="#191414"/>
<path d="M297.48 204.132C257.326 217.813 224.616 249.789 206.409 287.775C201.405 298.204 184.324 290.631 189.256 279.317C193.595 269.377 199.448 259.391 206.817 249.374C227.935 220.688 256.441 198.371 290.144 186.405C304.572 181.279 310.767 199.596 297.477 204.13L297.48 204.132Z" fill="#191414"/>
<path d="M315.001 234.907C309.766 236.84 304.283 238.796 299.491 241.223C273.73 254.229 254.75 275.079 240.429 299.426C238.413 302.855 235.127 310.056 231.911 311.863C226.452 314.914 219.946 310.371 220.655 304.244C220.939 301.833 223.018 298.976 223.886 297.357C242.201 263.085 270.223 234.401 307.347 221.365C309.964 220.45 311.984 220.06 313.412 220.195C321.493 220.968 322.773 232.03 314.996 234.907L315.001 234.907Z" fill="#191414"/>
</svg>
