<svg width="168" height="168" viewBox="0 0 168 168" fill="none" xmlns="http://www.w3.org/2000/svg">
<rect width="168" height="168" rx="84" fill="#121212"/>
<path d="M143.49 84C143.49 116.855 116.855 143.49 83.9999 143.49C51.1444 143.49 24.5098 116.855 24.5098 84C24.5098 51.1445 51.1444 24.5099 83.9999 24.5099C116.855 24.5099 143.49 51.1445 143.49 84Z" fill="#11E760"/>
<path d="M105.201 128.473C105.708 127.295 106.613 127.117 107.628 126.551C114.427 122.758 119.502 116.956 123.705 110.491C125.537 107.67 127.026 104.638 128.167 101.393C128.452 100.582 128.72 100.037 128.969 99.7597C130.055 98.5364 131.968 98.6408 133.068 99.8631C133.924 100.817 133.77 101.944 133.349 103.17C132.515 105.6 131.428 108.036 130.086 110.478C125.349 119.096 118.06 127.482 109.13 131.946C106.73 133.145 104.108 131.01 105.201 128.473Z" fill="#191414"/>
<path d="M101.043 119.119C110.13 114.724 116.928 106.223 120.127 96.7229C121.006 94.1146 125.26 95.4079 124.424 98.2231C123.687 100.697 122.594 103.225 121.144 105.804C116.988 113.192 110.903 119.29 103.29 123.093C100.031 124.723 98.0361 120.576 101.044 119.12L101.043 119.119Z" fill="#191414"/>
<path d="M96.0122 112.359C97.1925 111.75 98.4308 111.129 99.4922 110.417C105.199 106.598 109.078 101.123 111.754 94.9577C112.131 94.0893 112.698 92.2934 113.405 91.7733C114.606 90.8943 116.274 91.7787 116.285 93.2463C116.287 93.8239 115.879 94.559 115.721 94.9665C112.389 103.592 106.603 111.18 98.2127 115.335C97.6212 115.627 97.1554 115.778 96.814 115.787C94.883 115.839 94.2599 113.264 96.0135 112.359L96.0122 112.359Z" fill="#191414"/>
<path d="M94.946 84C94.946 90.0454 90.0453 94.9461 83.9999 94.9461C77.9544 94.9461 73.0537 90.0454 73.0537 84C73.0537 77.9546 77.9544 73.0538 83.9999 73.0538C90.0453 73.0538 94.946 77.9546 94.946 84Z" fill="#191414"/>
<path d="M67.8012 38.7843C67.1545 39.8918 66.2347 39.9585 65.1576 40.3966C57.9478 43.3331 52.2029 48.4733 47.2435 54.3773C45.0811 56.9543 43.2341 59.7821 41.706 62.8637C41.3239 63.6341 40.9923 64.142 40.7112 64.3873C39.4843 65.4692 37.5979 65.1324 36.6553 63.7852C35.9219 62.7342 36.2124 61.6345 36.7791 60.4684C37.9035 58.158 39.2789 55.8727 40.9088 53.6129C46.6602 45.636 54.9173 38.2009 64.3243 34.8587C66.853 33.961 69.1946 36.4001 67.8012 38.7843Z" fill="#191414"/>
<path d="M70.7883 48.5753C61.2333 51.8307 53.4495 59.4399 49.1169 68.479C47.9263 70.9607 43.8616 69.1586 45.0352 66.4664C46.0679 64.101 47.4606 61.7248 49.2141 59.3412C54.2394 52.5149 61.0226 47.2044 69.0426 44.357C72.476 43.1371 73.9502 47.4959 70.7876 48.5747L70.7883 48.5753Z" fill="#191414"/>
<path d="M74.9576 55.8984C73.7119 56.3586 72.4072 56.824 71.2669 57.4016C65.1368 60.4965 60.6202 65.4579 57.2124 71.2515C56.7327 72.0675 55.9507 73.7809 55.1855 74.2109C53.8863 74.9371 52.3383 73.8559 52.5069 72.398C52.5746 71.8244 53.0693 71.1445 53.2758 70.7592C57.6342 62.6038 64.3022 55.7782 73.1362 52.6761C73.7589 52.4583 74.2396 52.3655 74.5796 52.3977C76.5025 52.5816 76.8071 55.2138 74.9563 55.8985L74.9576 55.8984Z" fill="#191414"/>
</svg>
