<svg width="28" height="28" viewBox="0 0 28 28" fill="none" xmlns="http://www.w3.org/2000/svg">
<path d="M0 3.96601C0 1.77564 1.77564 0 3.96601 0H24.034C26.2244 0 28 1.77564 28 3.96601V24.034C28 26.2244 26.2244 28 24.034 28H3.96601C1.77564 28 0 26.2244 0 24.034V3.96601Z" fill="#121212"/>
<path d="M23.915 14C23.915 19.4759 19.4759 23.915 14 23.915C8.52409 23.915 4.08499 19.4759 4.08499 14C4.08499 8.52409 8.52409 4.08499 14 4.08499C19.4759 4.08499 23.915 8.52409 23.915 14Z" fill="#11E760"/>
<path d="M17.5335 21.4122C17.618 21.2159 17.7688 21.1862 17.9381 21.0918C19.0711 20.4596 19.917 19.4926 20.6175 18.4152C20.9229 17.945 21.171 17.4397 21.3612 16.8989C21.4088 16.7637 21.4533 16.6729 21.4948 16.6266C21.6758 16.4227 21.9947 16.4401 22.178 16.6439C22.3207 16.8028 22.2949 16.9906 22.2249 17.195C22.0858 17.6001 21.9047 18.0061 21.681 18.413C20.8916 19.8494 19.6767 21.247 18.1884 21.991C17.7883 22.1909 17.3514 21.8349 17.5335 21.4122Z" fill="#191414"/>
<path d="M16.8405 19.8532C18.355 19.1206 19.4881 17.7038 20.0212 16.1205C20.1678 15.6858 20.8768 15.9013 20.7373 16.3705C20.6145 16.7828 20.4324 17.2042 20.1907 17.6341C19.4981 18.8654 18.4838 19.8817 17.215 20.5156C16.6718 20.7871 16.3394 20.096 16.8406 19.8533L16.8405 19.8532Z" fill="#191414"/>
<path d="M16.0021 18.7265C16.1988 18.6251 16.4051 18.5216 16.5821 18.4029C17.5333 17.7664 18.1796 16.8539 18.6257 15.8263C18.6885 15.6816 18.783 15.3822 18.9009 15.2956C19.1011 15.149 19.3791 15.2964 19.3808 15.5411C19.3813 15.6373 19.3132 15.7598 19.2869 15.8278C18.7316 17.2654 17.7672 18.53 16.3688 19.2225C16.2702 19.2712 16.1926 19.2963 16.1357 19.2979C15.8139 19.3065 15.71 18.8773 16.0023 18.7264L16.0021 18.7265Z" fill="#191414"/>
<path d="M15.8244 14C15.8244 15.0076 15.0076 15.8244 14 15.8244C12.9924 15.8244 12.1756 15.0076 12.1756 14C12.1756 12.9924 12.9924 12.1756 14 12.1756C15.0076 12.1756 15.8244 12.9924 15.8244 14Z" fill="#191414"/>
<path d="M11.3002 6.46405C11.1924 6.64864 11.0391 6.65976 10.8596 6.73277C9.65799 7.22219 8.70051 8.07888 7.87393 9.06289C7.51354 9.49239 7.2057 9.96369 6.95102 10.4773C6.88735 10.6057 6.83208 10.6903 6.78522 10.7312C6.58074 10.9115 6.26634 10.8554 6.10924 10.6309C5.98701 10.4557 6.03543 10.2724 6.12988 10.0781C6.31727 9.69301 6.54651 9.31212 6.81816 8.93549C7.77672 7.60601 9.15291 6.36683 10.7207 5.80979C11.1422 5.66017 11.5325 6.0667 11.3002 6.46405Z" fill="#191414"/>
<path d="M11.7981 8.09589C10.2056 8.63846 8.90828 9.90665 8.18617 11.4132C7.98774 11.8268 7.3103 11.5264 7.50589 11.0777C7.67801 10.6835 7.91012 10.2875 8.20238 9.8902C9.03993 8.75249 10.1705 7.8674 11.5071 7.39283C12.0794 7.18952 12.3251 7.916 11.798 8.09579L11.7981 8.09589Z" fill="#191414"/>
<path d="M12.493 9.31641C12.2853 9.3931 12.0679 9.47068 11.8778 9.56693C10.8562 10.0828 10.1034 10.9097 9.53542 11.8753C9.45547 12.0112 9.32514 12.2968 9.19761 12.3685C8.98108 12.4895 8.72308 12.3093 8.75117 12.0663C8.76246 11.9707 8.84491 11.8574 8.87933 11.7932C9.60572 10.434 10.7171 9.29637 12.1894 8.77936C12.2932 8.74305 12.3733 8.72759 12.43 8.73295C12.7504 8.76361 12.8012 9.20231 12.4927 9.31643L12.493 9.31641Z" fill="#191414"/>
</svg>
