<svg xmlns="http://www.w3.org/2000/svg" width='24' height='24' viewBox='0 0 24 24'><g fill="none"><path d="m12.594 23.258l-.012.002l-.071.035l-.02.004l-.014-.004l-.071-.036q-.016-.004-.024.006l-.004.01l-.017.428l.005.02l.01.013l.104.074l.015.004l.012-.004l.104-.074l.012-.016l.004-.017l-.017-.427q-.004-.016-.016-.018m.264-.113l-.014.002l-.184.093l-.01.01l-.003.011l.018.43l.005.012l.008.008l.201.092q.019.005.029-.008l.004-.014l-.034-.614q-.005-.019-.02-.022m-.715.002a.02.02 0 0 0-.027.006l-.006.014l-.034.614q.001.018.017.024l.015-.002l.201-.093l.01-.008l.003-.011l.018-.43l-.003-.012l-.01-.01z"/><path fill="#B9B9B9" d="M19 19a1 1 0 0 1 .117 1.993L19 21h-7a1 1 0 0 1-.117-1.993L12 19zm.631-14.632a2.5 2.5 0 0 1 0 3.536L8.735 18.8a1.5 1.5 0 0 1-.44.305l-3.804 1.729c-.842.383-1.708-.484-1.325-1.326l1.73-3.804a1.5 1.5 0 0 1 .304-.44L16.096 4.368a2.5 2.5 0 0 1 3.535 0M6 1a1 1 0 0 1 .946.677l.13.378a3 3 0 0 0 1.869 1.87l.378.129a1 1 0 0 1 0 1.892l-.378.13a3 3 0 0 0-1.87 1.869l-.129.378a1 1 0 0 1-1.892 0l-.13-.378a3 3 0 0 0-1.869-1.87l-.378-.129a1 1 0 0 1 0-1.892l.378-.13a3 3 0 0 0 1.87-1.869l.129-.378A1 1 0 0 1 6 1"/></g></svg>