<svg width="537" height="122" viewBox="0 0 537 122" fill="none" xmlns="http://www.w3.org/2000/svg">
<path d="M96.0495 51.7407H106.629L136.232 120.638H122.255L115.849 104.873H86.0524L79.8406 120.638H66.1553L96.0495 51.7407ZM111.579 94.3634L100.999 66.3375L90.2259 94.3634H111.579Z" fill="#EFEFEF"/>
<path d="M184.961 120.638H173.896V113.145H173.702C172.667 115.48 170.855 117.556 168.267 119.373C165.743 121.124 162.734 122 159.24 122C156.199 122 153.578 121.481 151.378 120.443C149.243 119.34 147.464 117.913 146.04 116.161C144.681 114.41 143.678 112.399 143.031 110.128C142.384 107.857 142.061 105.522 142.061 103.121V73.9279H153.708V99.8129C153.708 101.175 153.805 102.602 153.999 104.095C154.193 105.587 154.614 106.949 155.261 108.182C155.908 109.349 156.781 110.323 157.881 111.101C159.046 111.88 160.567 112.269 162.443 112.269C164.255 112.269 165.84 111.912 167.199 111.198C168.622 110.42 169.755 109.447 170.596 108.279C171.502 107.111 172.181 105.781 172.634 104.289C173.087 102.732 173.314 101.175 173.314 99.6182V73.9279H184.961V120.638Z" fill="#EFEFEF"/>
<path d="M210.781 95.8231L193.99 73.9279H207.967L218.061 88.4273L228.446 73.9279H241.84L225.146 95.8231L244.17 120.638H229.999L217.867 103.608L205.637 120.638H191.855L210.781 95.8231Z" fill="#EFEFEF"/>
<path d="M244.666 51.7407H258.06L271.357 102.343H271.551L286.692 51.7407H299.31L314.16 102.343H314.354L327.942 51.7407H340.948L320.857 120.638H309.016L292.904 68.9649H292.71L276.598 120.638H264.757L244.666 51.7407Z" fill="#EFEFEF"/>
<path d="M373.926 114.702H373.635C372.47 116.778 370.594 118.497 368.005 119.859C365.417 121.157 362.473 121.805 359.173 121.805C357.297 121.805 355.323 121.546 353.253 121.027C351.247 120.573 349.37 119.794 347.623 118.691C345.941 117.524 344.517 116.032 343.353 114.215C342.253 112.334 341.702 110.031 341.702 107.306C341.702 103.803 342.673 101.013 344.614 98.937C346.62 96.8611 349.176 95.2716 352.282 94.1688C355.388 93.0659 358.817 92.3523 362.57 92.0279C366.388 91.6386 370.108 91.444 373.732 91.444V90.2763C373.732 87.3569 372.664 85.2161 370.529 83.8537C368.458 82.4264 365.967 81.7128 363.055 81.7128C360.597 81.7128 358.235 82.2318 355.97 83.2698C353.705 84.3078 351.829 85.5729 350.341 87.065L344.323 79.9612C346.976 77.496 350.017 75.647 353.447 74.4144C356.941 73.1818 360.467 72.5655 364.026 72.5655C368.167 72.5655 371.564 73.1494 374.217 74.3171C376.935 75.4849 379.07 77.0094 380.623 78.8908C382.176 80.7721 383.244 82.8806 383.826 85.216C384.473 87.5515 384.797 89.887 384.797 92.2225V120.638H373.926V114.702ZM373.732 99.3263H371.111C369.235 99.3263 367.261 99.4236 365.191 99.6182C363.12 99.748 361.211 100.105 359.464 100.689C357.717 101.208 356.261 101.986 355.097 103.024C353.932 103.997 353.35 105.36 353.35 107.111C353.35 108.214 353.576 109.155 354.029 109.933C354.547 110.647 355.194 111.231 355.97 111.685C356.747 112.139 357.62 112.463 358.591 112.658C359.561 112.853 360.532 112.95 361.503 112.95C365.514 112.95 368.555 111.88 370.626 109.739C372.697 107.598 373.732 104.678 373.732 100.981V99.3263Z" fill="#EFEFEF"/>
<path d="M398.366 73.9279H409.528V81.7128H409.722C411.016 78.9881 412.828 76.7823 415.157 75.0956C417.487 73.4089 420.204 72.5655 423.31 72.5655C423.763 72.5655 424.248 72.5979 424.766 72.6628C425.284 72.6628 425.737 72.7277 426.125 72.8574V83.5618C425.348 83.3671 424.669 83.2374 424.087 83.1725C423.569 83.1076 423.051 83.0752 422.534 83.0752C419.881 83.0752 417.745 83.5618 416.128 84.5349C414.51 85.508 413.248 86.6757 412.342 88.0381C411.437 89.4005 410.822 90.7953 410.498 92.2225C410.175 93.6498 410.013 94.7851 410.013 95.6284V120.638H398.366V73.9279Z" fill="#EFEFEF"/>
<path d="M459.247 86.3838C458.212 85.0214 456.788 83.8537 454.976 82.8806C453.165 81.8426 451.191 81.3236 449.056 81.3236C447.179 81.3236 445.465 81.7128 443.912 82.4913C442.359 83.2698 441.582 84.5673 441.582 86.3838C441.582 88.2003 442.423 89.4978 444.106 90.2763C445.853 90.9899 448.376 91.736 451.676 92.5145C453.423 92.9037 455.17 93.4227 456.917 94.0714C458.729 94.7202 460.347 95.596 461.77 96.6989C463.259 97.7369 464.456 99.0668 465.362 100.689C466.267 102.246 466.72 104.159 466.72 106.43C466.72 109.285 466.17 111.717 465.07 113.728C464.035 115.675 462.612 117.264 460.8 118.497C459.053 119.729 456.982 120.605 454.588 121.124C452.259 121.708 449.832 122 447.309 122C443.685 122 440.159 121.351 436.729 120.054C433.3 118.691 430.453 116.778 428.188 114.312L435.856 107.111C437.15 108.798 438.832 110.193 440.903 111.296C442.973 112.399 445.27 112.95 447.794 112.95C448.635 112.95 449.476 112.853 450.317 112.658C451.223 112.463 452.032 112.171 452.744 111.782C453.52 111.328 454.135 110.744 454.588 110.031C455.041 109.317 455.267 108.441 455.267 107.403C455.267 105.457 454.362 104.062 452.55 103.219C450.803 102.375 448.15 101.532 444.591 100.689C442.844 100.299 441.129 99.8129 439.447 99.229C437.829 98.5802 436.373 97.7693 435.079 96.7962C433.785 95.7582 432.75 94.4931 431.973 93.001C431.197 91.5089 430.809 89.66 430.809 87.4542C430.809 84.8592 431.326 82.6211 432.362 80.7397C433.462 78.8583 434.885 77.3338 436.632 76.166C438.379 74.9334 440.353 74.0252 442.553 73.4413C444.753 72.8574 447.017 72.5655 449.347 72.5655C452.712 72.5655 455.979 73.1494 459.15 74.3171C462.385 75.4849 464.941 77.2689 466.817 79.6693L459.247 86.3838Z" fill="#EFEFEF"/>
<path d="M50.3854 6.83908C49.5335 9.03199 47.8899 9.41691 46.0682 10.52C33.8764 17.9116 24.9635 28.8763 17.6889 41.0002C14.5179 46.2913 11.9887 51.9464 10.1087 57.97C9.63875 59.4759 9.18476 60.4915 8.74676 61.0168C6.83873 63.3297 3.33244 63.2609 1.2429 61.0898C-0.38374 59.3955 -0.173538 57.3191 0.516987 55.0431C1.88799 50.5331 3.72002 45.9965 6.01919 41.4331C14.1318 25.3254 26.9291 9.48015 42.9766 0.722627C47.2904 -1.63021 52.2216 2.11825 50.3854 6.83908Z" fill="#68D570"/>
<path d="M58.5882 23.7264C42.2483 32.3691 30.3566 48.3939 25.1126 66.0195C23.671 70.859 15.8077 68.7597 17.1582 63.5437C18.3478 58.9602 20.1849 54.2541 22.6722 49.4308C29.8017 35.6166 40.5428 24.045 54.2248 16.5824C60.0819 13.386 63.9961 20.8635 58.5882 23.7264Z" fill="#68D570"/>
<path d="M68.2214 35.8017C66.1013 36.9932 63.8763 38.2112 61.9803 39.5853C51.7854 46.954 45.0414 57.2423 40.5401 68.7205C39.9066 70.337 38.9836 73.6668 37.7235 74.6657C35.583 76.3547 32.4752 74.8397 32.3625 72.149C32.3207 71.09 33.0203 69.7159 33.2833 68.9583C38.8267 52.9268 48.9259 38.6423 64.0064 30.4846C65.0697 29.911 65.912 29.6049 66.5358 29.5656C70.0644 29.347 71.3687 34.03 68.2191 35.8022L68.2214 35.8017Z" fill="#68D570"/>
<path d="M486.615 6.83908C487.467 9.03199 489.11 9.41691 490.932 10.52C503.124 17.9116 512.037 28.8763 519.311 41.0002C522.482 46.2913 525.011 51.9464 526.891 57.97C527.361 59.4759 527.815 60.4915 528.253 61.0168C530.161 63.3297 533.668 63.2609 535.757 61.0898C537.384 59.3955 537.174 57.3191 536.483 55.0431C535.112 50.5331 533.28 45.9965 530.981 41.4331C522.868 25.3254 510.071 9.48015 494.023 0.722627C489.71 -1.63021 484.778 2.11825 486.615 6.83908Z" fill="#68D570"/>
<path d="M478.412 23.7264C494.752 32.3691 506.643 48.3939 511.887 66.0195C513.329 70.859 521.192 68.7597 519.842 63.5437C518.652 58.9602 516.815 54.2541 514.328 49.4308C507.198 35.6166 496.457 24.045 482.775 16.5824C476.918 13.386 473.004 20.8635 478.412 23.7264Z" fill="#68D570"/>
<path d="M468.779 35.8017C470.899 36.9932 473.124 38.2112 475.02 39.5853C485.215 46.954 491.959 57.2423 496.46 68.7205C497.093 70.337 498.016 73.6668 499.276 74.6657C501.417 76.3547 504.525 74.8397 504.637 72.149C504.679 71.09 503.98 69.7159 503.717 68.9583C498.173 52.9268 488.074 38.6423 472.994 30.4846C471.93 29.911 471.088 29.6049 470.464 29.5656C466.936 29.347 465.631 34.03 468.781 35.8022L468.779 35.8017Z" fill="#68D570"/>
</svg>
