<svg xmlns="http://www.w3.org/2000/svg" width="1em" height="1em" viewBox="0 0 24 24"><g fill="none" fill-rule="evenodd"><path d="m12.593 23.258l-.011.002l-.071.035l-.02.004l-.014-.004l-.071-.035q-.016-.005-.024.005l-.004.01l-.017.428l.005.02l.01.013l.104.074l.015.004l.012-.004l.104-.074l.012-.016l.004-.017l-.017-.427q-.004-.016-.017-.018m.265-.113l-.013.002l-.185.093l-.01.01l-.003.011l.018.43l.005.012l.008.007l.201.093q.019.005.029-.008l.004-.014l-.034-.614q-.005-.018-.02-.022m-.715.002a.02.02 0 0 0-.027.006l-.006.014l-.034.614q.001.018.017.024l.015-.002l.201-.093l.01-.008l.004-.011l.017-.43l-.003-.012l-.01-.01z"/><path fill="currentColor" d="M12 2C6.477 2 2 6.477 2 12s4.477 10 10 10s10-4.477 10-10S17.523 2 12 2m-4.731 8.44c3.24-.904 6.505-.449 9.334.774a1 1 0 0 0 .793-1.836c-3.17-1.37-6.906-1.913-10.665-.864a1 1 0 0 0 .538 1.926m.476 2.866c2.788-.777 5.996-.291 7.78.804a1 1 0 1 0 1.046-1.705c-2.312-1.42-6.104-1.934-9.363-1.025a1 1 0 0 0 .537 1.926m.431 2.754c1.13-.26 2.387-.263 3.492-.091c1.14.176 1.962.514 2.318.806a1 1 0 0 0 1.266-1.55c-.763-.623-2-1.035-3.277-1.233c-1.312-.203-2.829-.207-4.247.12a1 1 0 1 0 .448 1.948"/></g></svg>